<svg id="Layer_1" data-name="Layer 1" xmlns="http://www.w3.org/2000/svg" viewBox="0 0 90.03 100.36"><defs><style>.cls-1{fill:#000000;}</style></defs><title>time-piece</title><path class="cls-1" d="M42.43,8.72l0,.27,0-.27,6.25-.57h0L50.43,8,49.8,2.16l-9.75.89.63,5.83ZM49.28,3a11.86,11.86,0,0,1,.39,2.38,11.56,11.56,0,0,1,.13,2.4,12,12,0,0,1-.39-2.38A11.56,11.56,0,0,1,49.28,3Zm-.79,0a11.07,11.07,0,0,1,.39,2.38A11.2,11.2,0,0,1,49,7.86a11.07,11.07,0,0,1-.39-2.38A11.21,11.21,0,0,1,48.49,3.08Zm-.79,0s.09.21.15.55.16,1.09.24,1.83a11.21,11.21,0,0,1,.14,2.4,11.07,11.07,0,0,1-.39-2.38c-.08-.73-.14-1.39-.16-1.83A1.65,1.65,0,0,1,47.7,3.12Zm-.78,0a1.73,1.73,0,0,1,.14.58c.08.44.17,1.08.25,1.8a11.56,11.56,0,0,1,.13,2.4,11.86,11.86,0,0,1-.39-2.38c-.08-.72-.13-1.36-.15-1.8S46.88,3.16,46.92,3.16Zm-.79,0a1.74,1.74,0,0,1,.15.62c.08.43.16,1.06.24,1.76A11.65,11.65,0,0,1,46.65,8a11.64,11.64,0,0,1-.38-2.38c-.08-.71-.14-1.34-.16-1.78A1.75,1.75,0,0,1,46.13,3.2Zm-.79,0s.09.24.16.64.16,1.05.23,1.74A11.2,11.2,0,0,1,45.87,8a11.22,11.22,0,0,1-.39-2.38c-.08-.69-.13-1.31-.15-1.75A2,2,0,0,1,45.34,3.25Zm-.79,0s.1.25.17.67.15,1,.22,1.71a11.2,11.2,0,0,1,.14,2.4,12,12,0,0,1-.39-2.38C44.62,5,44.56,4.41,44.54,4A2.17,2.17,0,0,1,44.55,3.29Zm-.78,0a2.49,2.49,0,0,1,.17.7c.07.43.14,1,.22,1.68a11.56,11.56,0,0,1,.13,2.4,11.86,11.86,0,0,1-.39-2.38c-.07-.66-.12-1.25-.14-1.68S43.73,3.33,43.77,3.33Zm-.79,0a2.08,2.08,0,0,1,.17.73c.07.43.15,1,.22,1.65a10.79,10.79,0,0,1,.13,2.4,11.47,11.47,0,0,1-.38-2.38C43.05,5.13,43,4.55,43,4.12A2,2,0,0,1,43,3.37Zm-.79,0a2.08,2.08,0,0,1,.18.76c.07.43.14,1,.21,1.62a11.21,11.21,0,0,1,.14,2.4,11.07,11.07,0,0,1-.39-2.38c-.07-.62-.12-1.19-.15-1.62A2.94,2.94,0,0,1,42.19,3.41Zm-.78,0a11.64,11.64,0,0,1,.38,2.38,11.28,11.28,0,0,1,.14,2.41,12,12,0,0,1-.39-2.38A10.88,10.88,0,0,1,41.41,3.45Zm-.67.09a11.07,11.07,0,0,1,.39,2.38,11.2,11.2,0,0,1,.14,2.4,11.22,11.22,0,0,1-.39-2.38A11.21,11.21,0,0,1,40.74,3.54Z" transform="translate(-6.08 0.21)"/><path class="cls-1" d="M73.67,12.37h0l2.52,1.06L79.4,5.79l-14.3-6L61.89,7.42l2.53,1.06Zm4.9-6.43A26.49,26.49,0,0,1,77.3,9.25a27.11,27.11,0,0,1-1.47,3.22A30.18,30.18,0,0,1,77.1,9.16,31.53,31.53,0,0,1,78.57,5.94Zm-.85-.35a28.32,28.32,0,0,1-1.26,3.3A26.19,26.19,0,0,1,75,12.11a29.64,29.64,0,0,1,1.27-3.3A30.32,30.32,0,0,1,77.72,5.59Zm-.84-.36a32.87,32.87,0,0,1-1.27,3.31,28.06,28.06,0,0,1-1.48,3.22A30.91,30.91,0,0,1,75.4,8.45,28.06,28.06,0,0,1,76.88,5.23ZM74.55,8.1A27.76,27.76,0,0,1,76,4.87a28.53,28.53,0,0,1-1.27,3.31c-.06.15-.13.3-.19.44a23.32,23.32,0,0,1-1.28,2.78,21.94,21.94,0,0,1,1.08-2.87Zm-.84-.36a26.21,26.21,0,0,1,1.47-3.22,27.43,27.43,0,0,1-1.27,3.3c-.06.15-.12.3-.19.44a24,24,0,0,1-1.28,2.79,23.16,23.16,0,0,1,1.08-2.87C73.58,8,73.64,7.89,73.71,7.74Zm-.85-.36a29.15,29.15,0,0,1,1.47-3.22,26.49,26.49,0,0,1-1.27,3.31l-.18.44a24.25,24.25,0,0,1-1.29,2.78,23.85,23.85,0,0,1,1.08-2.87C72.73,7.68,72.8,7.53,72.86,7.38ZM72,7a29.2,29.2,0,0,1,1.47-3.22,27.43,27.43,0,0,1-1.27,3.3L72,7.55a24.25,24.25,0,0,1-1.29,2.78,22.6,22.6,0,0,1,1.09-2.86Zm-.85-.36a31.53,31.53,0,0,1,1.47-3.22,27.9,27.9,0,0,1-1.27,3.31l-.18.43A24,24,0,0,1,69.89,10,22.38,22.38,0,0,1,71,7.11Zm-.85-.36a28.06,28.06,0,0,1,1.48-3.22A30.91,30.91,0,0,1,70.52,6.4c-.07.15-.13.29-.19.44A24.25,24.25,0,0,1,69,9.62a25.14,25.14,0,0,1,1.09-2.87ZM69.46,6a26.19,26.19,0,0,1,1.48-3.22A32.24,32.24,0,0,1,69.67,6c-.07.15-.13.3-.19.44a20.76,20.76,0,0,1-1.29,2.78A24.64,24.64,0,0,1,69.28,6.4Zm-.84-.36a27.11,27.11,0,0,1,1.47-3.22,30.18,30.18,0,0,1-1.27,3.31c-.06.15-.13.29-.19.43a23.06,23.06,0,0,1-1.28,2.79A21.35,21.35,0,0,1,68.43,6C68.49,5.9,68.55,5.75,68.62,5.6Zm-.85-.36A27.11,27.11,0,0,1,69.24,2,26.49,26.49,0,0,1,68,5.33c-.06.15-.12.29-.19.44A23.32,23.32,0,0,1,66.5,8.55a23.85,23.85,0,0,1,1.08-2.87C67.64,5.54,67.7,5.39,67.77,5.24Zm-.85-.35a30.32,30.32,0,0,1,1.47-3.22A27.43,27.43,0,0,1,67.12,5l-.18.44a23.27,23.27,0,0,1-1.29,2.78,22.6,22.6,0,0,1,1.09-2.86Zm-.85-.36a31.53,31.53,0,0,1,1.47-3.22,27.9,27.9,0,0,1-1.27,3.31l-.18.43A24,24,0,0,1,64.8,7.84a16.85,16.85,0,0,1,.82-2.23Zm-3,2.59a32.24,32.24,0,0,1,1.27-3.3A27.09,27.09,0,0,1,65.85.6a32.24,32.24,0,0,1-1.27,3.3A26.19,26.19,0,0,1,63.1,7.12Zm.85.36a30.18,30.18,0,0,1,1.27-3.31A31.53,31.53,0,0,1,66.69,1a26.49,26.49,0,0,1-1.27,3.31A27.11,27.11,0,0,1,64,7.48Z" transform="translate(-6.08 0.21)"/><path class="cls-1" d="M84.85,22.83,88,26.56l.91,1.08h0L90,29l4.56-3.7-6.29-7.5-4.56,3.69,1.13,1.35Zm8.69,2.52A11.88,11.88,0,0,1,91.75,27a10.74,10.74,0,0,1-2,1.42,12.54,12.54,0,0,1,1.79-1.61A10.74,10.74,0,0,1,93.54,25.35Zm-.49-.62a11.5,11.5,0,0,1-1.78,1.61,11.36,11.36,0,0,1-2,1.42,11.88,11.88,0,0,1,1.79-1.61A11.31,11.31,0,0,1,93.05,24.73Zm-.48-.63s-.13.18-.38.42-.83.73-1.4,1.2a12.32,12.32,0,0,1-2,1.42,10.72,10.72,0,0,1,1.78-1.62c.58-.46,1.1-.87,1.46-1.12S92.55,24.08,92.57,24.1Zm-.48-.62s-.14.19-.41.44-.82.72-1.38,1.18a12.8,12.8,0,0,1-1.94,1.42,10.72,10.72,0,0,1,1.78-1.62c.56-.46,1.07-.85,1.43-1.11A1.83,1.83,0,0,1,92.09,23.48Zm-.49-.62s-.14.2-.42.46-.81.71-1.36,1.15a10.74,10.74,0,0,1-1.95,1.42,12.54,12.54,0,0,1,1.79-1.61c.55-.45,1-.84,1.41-1.09S91.58,22.83,91.6,22.86Zm-.48-.62s-.15.2-.45.48-.8.7-1.33,1.13a10.74,10.74,0,0,1-2,1.42,11.88,11.88,0,0,1,1.79-1.61c.53-.44,1-.82,1.38-1.08S91.1,22.21,91.12,22.24Zm-.48-.63s-.16.22-.47.5-.79.69-1.32,1.12a12,12,0,0,1-1.94,1.42A10.72,10.72,0,0,1,88.69,23c.53-.42,1-.8,1.36-1.05A2.22,2.22,0,0,1,90.64,21.61ZM90.16,21s-.17.23-.5.52-.78.68-1.29,1.1A12.8,12.8,0,0,1,86.43,24a10.72,10.72,0,0,1,1.78-1.62c.51-.42,1-.78,1.33-1S90.13,21,90.16,21Zm-.49-.62s-.17.23-.51.54-.77.67-1.27,1.07a10.74,10.74,0,0,1-2,1.42,12.54,12.54,0,0,1,1.79-1.61c.5-.41,1-.77,1.31-1S89.65,20.34,89.67,20.37Zm-.48-.62s-.19.24-.54.56-.75.65-1.24,1.05a10.74,10.74,0,0,1-2,1.42,11.49,11.49,0,0,1,1.78-1.61c.49-.4.94-.75,1.29-1A2.2,2.2,0,0,1,89.19,19.75Zm-4.66,1.91a11.88,11.88,0,0,1,1.79-1.61,11.31,11.31,0,0,1,1.94-1.42,11.5,11.5,0,0,1-1.78,1.61A11.36,11.36,0,0,1,84.53,21.66Zm2.23-1.12a12.06,12.06,0,0,1,1.95-1.42,11.62,11.62,0,0,1-1.79,1.62A12,12,0,0,1,85,22.16,10.72,10.72,0,0,1,86.76,20.54Z" transform="translate(-6.08 0.21)"/><path class="cls-1" d="M86.84,29.3l.89-.72L84.51,23.1l-1.82,1.49a45.81,45.81,0,0,0-10.83-7.91l.67-1.6-8.36-6L62.52,13A45.88,45.88,0,0,0,49,11.39l-.29-2.67.1.91-6.37-.48L42.79,12A44,44,0,0,0,9.48,38.27l-.39.95C.32,61.53,11.3,87,34,96.55s48.55-.5,58.34-22.37c.14-.31.28-.63.41-.94A44.05,44.05,0,0,0,86.84,29.3ZM24,75.68a8.75,8.75,0,0,1-.78.41c-.28.13-.48.19-.51.14s.11-.18.34-.36a8.17,8.17,0,0,1,.77-.49c.66-.39,1.23-.63,1.29-.55S24.64,75.3,24,75.68ZM37.79,87.51c-.09.23-.19.48-.3.73l-.08.18a8.14,8.14,0,0,1-1.08,2.11A8.15,8.15,0,0,1,37,88.39c0-.1.07-.19.12-.29.12-.29.24-.57.36-.83a5.27,5.27,0,0,1,.79-1.46A5.46,5.46,0,0,1,37.79,87.51Zm14.43-31a1.27,1.27,0,0,1-1,.76c0,.48,0,1,0,1.45,0,7.72,0,14.71,0,19.77,0,2.52-.05,4.57-.08,6a13.28,13.28,0,0,1-.13,2.2,12.91,12.91,0,0,1-.15-2.2c-.06-1.41-.11-3.46-.15-6-.09-5.06-.17-12-.21-19.76,0-.5,0-1,0-1.47l0,0s0-.05,0-.11a1.3,1.3,0,0,1-.68-1.69,1.6,1.6,0,0,1,.32-.45c-.73-1-1.44-2.05-2.13-3l0,0-3.74,4.86L8.37,60.48l0-.13a42.6,42.6,0,0,1,7-28.88l.12-.18.39-.55L16.4,30a1.09,1.09,0,0,0,.13-.17l.48-.61.22-.27.39-.48.29-.34.3-.36.39-.44.16-.17A43.39,43.39,0,0,1,36.05,15.68h.05l.1,0A42.73,42.73,0,0,1,43,13.86L43.12,15l6.26-.57-.14-1.23h.34c1.49,0,2.94,0,4.34.17l.18,0,.29,0a45,45,0,0,1,7.35,1.38l-.06.14,9.25,3.88.14-.34c.61.33,1.21.66,1.8,1L59.25,37.22l-.06.14c-.62,1.52-1.3,3.15-2,4.83-2.24,5.33-4.27,10-5.5,12.66A1.31,1.31,0,0,1,52.22,56.47Zm5.67,33.31c-.09,0-.38-.56-.64-1.32A3.19,3.19,0,0,1,57,87c.09,0,.38.57.64,1.33S58,89.75,57.89,89.78Zm21.17-55c-.61.36-1.15.58-1.2.5s.4-.45,1-.81,1.15-.58,1.2-.49S79.68,34.4,79.06,34.76ZM76.12,83.3a9.87,9.87,0,0,1-1.61-2A9.75,9.75,0,0,1,73.19,79a9.36,9.36,0,0,1,1.62,2A9.07,9.07,0,0,1,76.12,83.3Zm8.17-30.85a10.31,10.31,0,0,1,2.46-.83,10.17,10.17,0,0,1,2.56-.49,9,9,0,0,1-2.46.83A9.15,9.15,0,0,1,84.29,52.45Zm.78,17a19.76,19.76,0,0,1-3.37-1.61,19.47,19.47,0,0,1,3.51,1.28,20.61,20.61,0,0,1,3.38,1.61A19.71,19.71,0,0,1,85.07,69.46Z" transform="translate(-6.08 0.21)"/><path class="cls-1" d="M57.52,39.47l-9.1,11.84v.07l2.34,3.3a1.33,1.33,0,0,1,.56,0c1-2.75,3-7.46,5.19-12.79a5.29,5.29,0,0,0,1-2.37Z" transform="translate(-6.08 0.21)"/><path class="cls-1" d="M63.77,22.4a7.52,7.52,0,0,0-.47,1.5c0,.06,0,.1,0,.11a4.59,4.59,0,0,0,.78-1.42l0-.06.28.11a.61.61,0,0,0,.48-1.13l-.28-.11a10,10,0,0,0,.71-2.07c0-.07,0-.11,0-.11a8.27,8.27,0,0,0-1.05,2A38.13,38.13,0,0,0,46.17,19c-.14-.31-.26-.5-.31-.48s0,0,0,.11a1.15,1.15,0,0,0,0,.41,36.17,36.17,0,0,0-17,6.74,6.94,6.94,0,0,0-1.31-1.61s0,0,0,.06h0a6.83,6.83,0,0,0,1,1.79A34.11,34.11,0,0,0,18.19,38.7l-.46-.2a19.69,19.69,0,0,0-3.46-1.26l.06.07s-.06,0-.07,0a19.76,19.76,0,0,0,3.33,1.59l.42.18A35.87,35.87,0,0,0,15,57.87a8.22,8.22,0,0,0-2.22.77l0,0s0,0,0,.05A8.29,8.29,0,0,0,15,58.3h0c0,.18.05.36.07.54l1.28-.12c0-.25-.07-.5-.1-.76a4.86,4.86,0,0,0,1.49-.56l0,0s.05,0,.05,0a4.69,4.69,0,0,0-1.55.24,33.27,33.27,0,0,1,2.37-16.74c.18-.43.38-.86.58-1.29h0a7.54,7.54,0,0,0,1.88.62s0,0-.05-.06h.06a8.68,8.68,0,0,0-1.75-.9,33.32,33.32,0,0,1,10-12.12l0,.05c.61.84,1.08,1.42,1.15,1.37s0,0,0-.07h0a6.3,6.3,0,0,0-.88-1.58,35.54,35.54,0,0,1,16.64-6.57.14.14,0,0,1,0,.06c.22.56.42,1,.5.92s0,0,0-.11a2.82,2.82,0,0,0-.17-.92A36.29,36.29,0,0,1,63.77,22.4Z" transform="translate(-6.08 0.21)"/></svg>